<svg width="182" height="27" viewBox="0 0 182 27" fill="none" xmlns="http://www.w3.org/2000/svg">
<rect y="2" width="182" height="24" fill="#090D0D"/>
<rect y="2" width="24.3745" height="24.3745" rx="3" fill="#1E1E1E"/>
<path d="M15.5673 16.4724H18.8521V22.2804H15.5673V16.4724Z" fill="white"/>
<path d="M18.8522 8.90388L18.8522 11.3785L15.5673 11.3785L15.5673 5.57056L18.8522 8.90388Z" fill="white"/>
<rect x="9.66406" y="12.283" width="9.18805" height="3.28485" fill="white"/>
<path d="M5.47473 8.90936L8.75958 5.57056V22.2804H5.47473V8.90936Z" fill="white"/>
<path d="M40.9 15.28H35.58V21H32.54V7.04H35.58V12.6H40.9V7.04H43.94V21H40.9V15.28ZM51.1127 21.24C50.3393 21.24 49.646 21.1133 49.0327 20.86C48.4327 20.6067 47.9193 20.24 47.4927 19.76C47.0793 19.28 46.7593 18.7 46.5327 18.02C46.306 17.34 46.1927 16.58 46.1927 15.74C46.1927 14.9 46.306 14.14 46.5327 13.46C46.7593 12.78 47.0793 12.2067 47.4927 11.74C47.9193 11.26 48.4327 10.8933 49.0327 10.64C49.646 10.3867 50.3393 10.26 51.1127 10.26C51.886 10.26 52.5727 10.3867 53.1727 10.64C53.786 10.8933 54.2993 11.26 54.7127 11.74C55.1393 12.2067 55.466 12.78 55.6927 13.46C55.9193 14.14 56.0327 14.9 56.0327 15.74C56.0327 16.58 55.9193 17.34 55.6927 18.02C55.466 18.7 55.1393 19.28 54.7127 19.76C54.2993 20.24 53.786 20.6067 53.1727 20.86C52.5727 21.1133 51.886 21.24 51.1127 21.24ZM51.1127 18.9C51.6993 18.9 52.1527 18.72 52.4727 18.36C52.7927 18 52.9527 17.4867 52.9527 16.82V14.68C52.9527 14.0133 52.7927 13.5 52.4727 13.14C52.1527 12.78 51.6993 12.6 51.1127 12.6C50.526 12.6 50.0727 12.78 49.7527 13.14C49.4327 13.5 49.2727 14.0133 49.2727 14.68V16.82C49.2727 17.4867 49.4327 18 49.7527 18.36C50.0727 18.72 50.526 18.9 51.1127 18.9ZM64.3417 19.24H64.2417C64.1484 19.5067 64.0217 19.76 63.8617 20C63.7151 20.24 63.5217 20.4533 63.2817 20.64C63.0417 20.8267 62.7551 20.9733 62.4217 21.08C62.1017 21.1867 61.7284 21.24 61.3017 21.24C60.2217 21.24 59.4017 20.8867 58.8417 20.18C58.2951 19.46 58.0217 18.4333 58.0217 17.1V10.5H60.9817V16.84C60.9817 17.48 61.0951 17.9733 61.3217 18.32C61.5484 18.6667 61.9351 18.84 62.4817 18.84C62.7084 18.84 62.9351 18.8067 63.1617 18.74C63.3884 18.6733 63.5884 18.58 63.7617 18.46C63.9351 18.3267 64.0751 18.1667 64.1817 17.98C64.2884 17.7933 64.3417 17.5733 64.3417 17.32V10.5H67.3017V21H64.3417V19.24ZM70.0558 21V10.5H73.0158V12.28H73.1358C73.3224 11.7333 73.6491 11.26 74.1158 10.86C74.5824 10.46 75.2291 10.26 76.0558 10.26C77.1358 10.26 77.9491 10.62 78.4958 11.34C79.0558 12.06 79.3358 13.0867 79.3358 14.42V21H76.3758V14.66C76.3758 13.98 76.2691 13.48 76.0558 13.16C75.8424 12.8267 75.4624 12.66 74.9158 12.66C74.6758 12.66 74.4424 12.6933 74.2158 12.76C73.9891 12.8133 73.7824 12.9067 73.5958 13.04C73.4224 13.1733 73.2824 13.34 73.1758 13.54C73.0691 13.7267 73.0158 13.9467 73.0158 14.2V21H70.0558ZM88.4098 19.24H88.3098C88.2298 19.52 88.1032 19.7867 87.9298 20.04C87.7565 20.28 87.5432 20.4933 87.2898 20.68C87.0498 20.8533 86.7698 20.9867 86.4498 21.08C86.1432 21.1867 85.8232 21.24 85.4898 21.24C84.1565 21.24 83.1498 20.7733 82.4698 19.84C81.7898 18.8933 81.4498 17.5267 81.4498 15.74C81.4498 13.9533 81.7898 12.5933 82.4698 11.66C83.1498 10.7267 84.1565 10.26 85.4898 10.26C86.1698 10.26 86.7698 10.4467 87.2898 10.82C87.8232 11.1933 88.1632 11.6733 88.3098 12.26H88.4098V6.2H91.3698V21H88.4098V19.24ZM86.4698 18.84C87.0298 18.84 87.4898 18.7067 87.8498 18.44C88.2232 18.16 88.4098 17.78 88.4098 17.3V14.2C88.4098 13.72 88.2232 13.3467 87.8498 13.08C87.4898 12.8 87.0298 12.66 86.4698 12.66C85.9098 12.66 85.4432 12.86 85.0698 13.26C84.7098 13.6467 84.5298 14.1733 84.5298 14.84V16.66C84.5298 17.3267 84.7098 17.86 85.0698 18.26C85.4432 18.6467 85.9098 18.84 86.4698 18.84ZM97.5378 21L93.0378 7.04H96.1178L98.1978 13.74L99.2978 18.12H99.3578L100.418 13.74L102.498 7.04H105.478L100.938 21H97.5378ZM107.306 21V7.04H113.906C114.559 7.04 115.146 7.15333 115.666 7.38C116.186 7.59333 116.626 7.89333 116.986 8.28C117.359 8.66667 117.646 9.14 117.846 9.7C118.046 10.2467 118.146 10.8467 118.146 11.5C118.146 12.1667 118.046 12.7733 117.846 13.32C117.646 13.8667 117.359 14.3333 116.986 14.72C116.626 15.1067 116.186 15.4133 115.666 15.64C115.146 15.8533 114.559 15.96 113.906 15.96H110.346V21H107.306ZM110.346 13.32H113.546C113.999 13.32 114.352 13.2067 114.606 12.98C114.872 12.74 115.006 12.3933 115.006 11.94V11.06C115.006 10.6067 114.872 10.2667 114.606 10.04C114.352 9.8 113.999 9.68 113.546 9.68H110.346V13.32ZM124.691 14.4L123.351 11.6H123.291V21H120.431V7.04H123.751L127.571 13.64L128.911 16.44H128.971V7.04H131.831V21H128.511L124.691 14.4Z" fill="#FAFAFA"/>
<path d="M141.89 21L138.49 7.04H140.27L141.77 13.76L142.93 18.98H142.97L144.27 13.76L146.03 7.04H147.95L149.65 13.76L150.95 18.96H151.01L152.21 13.76L153.79 7.04H155.51L151.93 21H150.07L148.25 14.04L146.97 8.92H146.93L145.61 14.04L143.75 21H141.89ZM158.402 8.26C158.056 8.26 157.802 8.18 157.642 8.02C157.496 7.84667 157.422 7.62667 157.422 7.36V7.1C157.422 6.83333 157.496 6.62 157.642 6.46C157.802 6.28667 158.056 6.2 158.402 6.2C158.749 6.2 158.996 6.28667 159.142 6.46C159.302 6.62 159.382 6.83333 159.382 7.1V7.36C159.382 7.62667 159.302 7.84667 159.142 8.02C158.996 8.18 158.749 8.26 158.402 8.26ZM157.602 10.68H159.202V21H157.602V10.68ZM162.602 6.2H164.202V15.58H164.282L165.862 13.82L168.782 10.68H170.722L166.902 14.76L171.102 21H169.162L165.742 15.74L164.202 17.32V21H162.602V6.2ZM173.949 8.26C173.603 8.26 173.349 8.18 173.189 8.02C173.043 7.84667 172.969 7.62667 172.969 7.36V7.1C172.969 6.83333 173.043 6.62 173.189 6.46C173.349 6.28667 173.603 6.2 173.949 6.2C174.296 6.2 174.543 6.28667 174.689 6.46C174.849 6.62 174.929 6.83333 174.929 7.1V7.36C174.929 7.62667 174.849 7.84667 174.689 8.02C174.543 8.18 174.296 8.26 173.949 8.26ZM173.149 10.68H174.749V21H173.149V10.68Z" fill="#9F9FA9"/>
</svg>
