<svg width="148" height="32" viewBox="0 0 148 32" fill="none" xmlns="http://www.w3.org/2000/svg">
<path d="M37.28 19C37.12 19 37.04 18.92 37.04 18.76V3.52C37.04 3.36 37.12 3.28 37.28 3.28H38.84C39 3.28 39.08 3.36 39.08 3.52V10H46.784V3.52C46.784 3.36 46.864 3.28 47.024 3.28H48.584C48.744 3.28 48.824 3.36 48.824 3.52V18.76C48.824 18.92 48.744 19 48.584 19H47.024C46.864 19 46.784 18.92 46.784 18.76V11.776H39.08V18.76C39.08 18.92 39 19 38.84 19H37.28ZM57.2992 19.288C55.6832 19.288 54.4512 18.896 53.6032 18.112C52.7712 17.328 52.3552 16.136 52.3552 14.536V11.752C52.3552 10.152 52.7712 8.96 53.6032 8.176C54.4352 7.392 55.6672 7 57.2992 7C58.9152 7 60.1392 7.392 60.9712 8.176C61.8192 8.96 62.2432 10.152 62.2432 11.752V14.536C62.2432 16.136 61.8272 17.328 60.9952 18.112C60.1632 18.896 58.9312 19.288 57.2992 19.288ZM57.2992 17.488C58.3232 17.488 59.0592 17.232 59.5072 16.72C59.9712 16.192 60.2032 15.4 60.2032 14.344V11.944C60.2032 10.888 59.9712 10.104 59.5072 9.592C59.0592 9.064 58.3232 8.8 57.2992 8.8C56.2752 8.8 55.5312 9.064 55.0672 9.592C54.6192 10.104 54.3952 10.888 54.3952 11.944V14.344C54.3952 15.4 54.6192 16.192 55.0672 16.72C55.5312 17.232 56.2752 17.488 57.2992 17.488ZM68.7024 19.288C67.6784 19.288 66.8944 18.944 66.3504 18.256C65.8064 17.568 65.5344 16.576 65.5344 15.28V7.528C65.5344 7.368 65.6144 7.288 65.7744 7.288H67.3344C67.4944 7.288 67.5744 7.368 67.5744 7.528V15.184C67.5744 15.968 67.7104 16.552 67.9824 16.936C68.2704 17.304 68.7104 17.488 69.3024 17.488C69.8944 17.488 70.4864 17.304 71.0784 16.936C71.6864 16.568 72.4384 15.928 73.3344 15.016L73.2864 16.912C72.7744 17.44 72.2624 17.88 71.7504 18.232C71.2384 18.584 70.7264 18.848 70.2144 19.024C69.7184 19.2 69.2144 19.288 68.7024 19.288ZM73.5024 19C73.3264 19 73.2304 18.92 73.2144 18.76C73.1664 18.456 73.1264 18.144 73.0944 17.824C73.0624 17.504 73.0384 17.176 73.0224 16.84L72.9024 15.832V7.528C72.9024 7.368 72.9824 7.288 73.1424 7.288H74.7024C74.8624 7.288 74.9424 7.368 74.9424 7.528V16.072C74.9424 16.504 74.9504 16.952 74.9664 17.416C74.9984 17.88 75.0464 18.328 75.1104 18.76C75.1424 18.92 75.0544 19 74.8464 19H73.5024ZM86.4862 19C86.3262 19 86.2462 18.92 86.2462 18.76V11.104C86.2462 10.304 86.0782 9.72 85.7422 9.352C85.4222 8.984 84.9342 8.8 84.2782 8.8C83.6542 8.8 83.0382 8.984 82.4302 9.352C81.8222 9.72 81.0622 10.352 80.1502 11.248L80.1742 9.4C80.7182 8.824 81.2302 8.36 81.7102 8.008C82.2062 7.656 82.6942 7.4 83.1742 7.24C83.6702 7.08 84.1902 7 84.7342 7C85.8862 7 86.7662 7.336 87.3742 8.008C87.9822 8.68 88.2862 9.68 88.2862 11.008V18.76C88.2862 18.92 88.2062 19 88.0462 19H86.4862ZM78.7822 19C78.6222 19 78.5422 18.92 78.5422 18.76V10.216C78.5422 9.8 78.5182 9.336 78.4702 8.824C78.4382 8.296 78.4062 7.888 78.3742 7.6C78.3422 7.392 78.4222 7.288 78.6142 7.288H80.0782C80.2222 7.288 80.3102 7.368 80.3422 7.528C80.3742 7.656 80.4062 7.856 80.4382 8.128C80.4702 8.4 80.5022 8.688 80.5342 8.992C80.5662 9.28 80.5822 9.528 80.5822 9.736V10.36V18.76C80.5822 18.92 80.5022 19 80.3422 19H78.7822ZM95.0941 19.288C93.9741 19.288 93.1101 18.912 92.5021 18.16C91.9101 17.408 91.6141 16.296 91.6141 14.824V11.824C91.6141 10.304 91.9981 9.12 92.7661 8.272C93.5341 7.424 94.5981 7 95.9581 7C96.5821 7 97.2381 7.088 97.9261 7.264C98.6141 7.424 99.1341 7.632 99.4861 7.888L99.6061 9.64C99.0941 9.368 98.5341 9.16 97.9261 9.016C97.3181 8.872 96.7821 8.8 96.3181 8.8C95.4221 8.8 94.7501 9.072 94.3021 9.616C93.8701 10.16 93.6541 10.976 93.6541 12.064V14.944C93.6541 15.792 93.8141 16.432 94.1341 16.864C94.4701 17.28 94.9661 17.488 95.6221 17.488C96.0221 17.488 96.4141 17.416 96.7981 17.272C97.1821 17.112 97.6061 16.856 98.0701 16.504C98.5341 16.136 99.0781 15.64 99.7021 15.016L99.6541 16.888C99.1101 17.432 98.5901 17.888 98.0941 18.256C97.6141 18.608 97.1261 18.864 96.6301 19.024C96.1501 19.2 95.6381 19.288 95.0941 19.288ZM99.8221 19C99.6461 19 99.5501 18.912 99.5341 18.736C99.5021 18.496 99.4621 18.192 99.4141 17.824C99.3661 17.456 99.3501 17.152 99.3661 16.912L99.2461 15.832V2.848C99.2461 2.688 99.3261 2.608 99.4861 2.608H101.046C101.206 2.608 101.286 2.688 101.286 2.848V16.288C101.286 16.512 101.294 16.784 101.31 17.104C101.326 17.408 101.342 17.704 101.358 17.992C101.39 18.28 101.422 18.504 101.454 18.664C101.502 18.888 101.422 19 101.214 19H99.8221Z" fill="white"/>
<path d="M108.773 19C108.597 19 108.485 18.928 108.437 18.784L103.421 3.592C103.357 3.384 103.429 3.28 103.637 3.28H106.157C106.333 3.28 106.445 3.352 106.493 3.496L109.373 12.976C109.549 13.552 109.717 14.128 109.877 14.704C110.037 15.28 110.189 15.856 110.333 16.432H110.381C110.525 15.856 110.677 15.288 110.837 14.728C111.013 14.152 111.181 13.576 111.341 13L114.293 3.52C114.341 3.36 114.453 3.28 114.629 3.28H117.149C117.357 3.28 117.429 3.384 117.365 3.592L112.253 18.784C112.205 18.928 112.101 19 111.941 19H108.773ZM119.728 19C119.552 19 119.464 18.904 119.464 18.712V3.568C119.464 3.376 119.552 3.28 119.728 3.28H124.192C126.272 3.28 127.8 3.72 128.776 4.6C129.768 5.464 130.264 6.736 130.264 8.416C130.264 10.064 129.76 11.328 128.752 12.208C127.744 13.072 126.232 13.504 124.216 13.504H122.344V18.712C122.344 18.904 122.248 19 122.056 19H119.728ZM122.344 11.056H124.168C125.256 11.056 126.064 10.848 126.592 10.432C127.12 10.016 127.384 9.352 127.384 8.44C127.384 7.48 127.12 6.792 126.592 6.376C126.064 5.96 125.248 5.752 124.144 5.752H122.344V11.056ZM133.134 19C132.958 19 132.87 18.904 132.87 18.712V3.568C132.87 3.376 132.958 3.28 133.134 3.28H136.542C136.702 3.28 136.814 3.344 136.878 3.472L140.742 11.272C141.014 11.8 141.262 12.312 141.486 12.808C141.726 13.304 141.942 13.776 142.134 14.224C142.326 14.672 142.494 15.088 142.638 15.472H142.71C142.678 15.04 142.654 14.576 142.638 14.08C142.622 13.568 142.606 13.056 142.59 12.544C142.59 12.032 142.59 11.568 142.59 11.152V3.568C142.59 3.376 142.678 3.28 142.854 3.28H145.11C145.302 3.28 145.398 3.376 145.398 3.568V18.712C145.398 18.904 145.302 19 145.11 19H141.75C141.59 19 141.478 18.936 141.414 18.808L137.67 11.272C137.43 10.792 137.19 10.304 136.95 9.808C136.726 9.296 136.502 8.792 136.278 8.296C136.07 7.8 135.87 7.328 135.678 6.88H135.606C135.622 7.376 135.638 7.88 135.654 8.392C135.67 8.904 135.678 9.416 135.678 9.928C135.678 10.44 135.678 10.952 135.678 11.464V18.712C135.678 18.904 135.582 19 135.39 19H133.134Z" fill="#028C7D"/>
<g filter="url(#filter0_d_73_61)">
<rect x="4" width="24" height="24" rx="5" fill="#131313"/>
</g>
<g filter="url(#filter1_i_73_61)">
<path d="M19.3281 14.25H22.5625V19.9688H19.3281V14.25Z" fill="#03BBA7"/>
<path d="M22.5625 6.79774L22.5625 9.23438L19.3281 9.23437L19.3281 3.51562L22.5625 6.79774Z" fill="#03BBA7"/>
<rect x="13.5156" y="10.125" width="9.04688" height="3.23438" fill="#03BBA7"/>
<path d="M9.39062 6.80312L12.625 3.51562V19.9688H9.39062V6.80312Z" fill="#03BBA7"/>
</g>
<defs>
<filter id="filter0_d_73_61" x="0" y="0" width="32" height="32" filterUnits="userSpaceOnUse" color-interpolation-filters="sRGB">
<feFlood flood-opacity="0" result="BackgroundImageFix"/>
<feColorMatrix in="SourceAlpha" type="matrix" values="0 0 0 0 0 0 0 0 0 0 0 0 0 0 0 0 0 0 127 0" result="hardAlpha"/>
<feOffset dy="4"/>
<feGaussianBlur stdDeviation="2"/>
<feComposite in2="hardAlpha" operator="out"/>
<feColorMatrix type="matrix" values="0 0 0 0 0 0 0 0 0 0 0 0 0 0 0 0 0 0 0.25 0"/>
<feBlend mode="normal" in2="BackgroundImageFix" result="effect1_dropShadow_73_61"/>
<feBlend mode="normal" in="SourceGraphic" in2="effect1_dropShadow_73_61" result="shape"/>
</filter>
<filter id="filter1_i_73_61" x="9.39062" y="3.51562" width="17.1719" height="20.4531" filterUnits="userSpaceOnUse" color-interpolation-filters="sRGB">
<feFlood flood-opacity="0" result="BackgroundImageFix"/>
<feBlend mode="normal" in="SourceGraphic" in2="BackgroundImageFix" result="shape"/>
<feColorMatrix in="SourceAlpha" type="matrix" values="0 0 0 0 0 0 0 0 0 0 0 0 0 0 0 0 0 0 127 0" result="hardAlpha"/>
<feOffset dx="13" dy="13"/>
<feGaussianBlur stdDeviation="2"/>
<feComposite in2="hardAlpha" operator="arithmetic" k2="-1" k3="1"/>
<feColorMatrix type="matrix" values="0 0 0 0 0 0 0 0 0 0 0 0 0 0 0 0 0 0 0.25 0"/>
<feBlend mode="normal" in2="shape" result="effect1_innerShadow_73_61"/>
</filter>
</defs>
</svg>
