<svg width="105" height="13" viewBox="0 0 105 13" fill="none" xmlns="http://www.w3.org/2000/svg">
<path d="M0.52 12C0.413333 12 0.36 11.9467 0.36 11.84V1.68C0.36 1.57333 0.413333 1.52 0.52 1.52H1.56C1.66667 1.52 1.72 1.57333 1.72 1.68V6H6.856V1.68C6.856 1.57333 6.90933 1.52 7.016 1.52H8.056C8.16267 1.52 8.216 1.57333 8.216 1.68V11.84C8.216 11.9467 8.16267 12 8.056 12H7.016C6.90933 12 6.856 11.9467 6.856 11.84V7.184H1.72V11.84C1.72 11.9467 1.66667 12 1.56 12H0.52ZM13.8661 12.192C12.7888 12.192 11.9675 11.9307 11.4021 11.408C10.8475 10.8853 10.5701 10.0907 10.5701 9.024V7.168C10.5701 6.10133 10.8475 5.30667 11.4021 4.784C11.9568 4.26133 12.7781 4 13.8661 4C14.9435 4 15.7595 4.26133 16.3141 4.784C16.8795 5.30667 17.1621 6.10133 17.1621 7.168V9.024C17.1621 10.0907 16.8848 10.8853 16.3301 11.408C15.7755 11.9307 14.9541 12.192 13.8661 12.192ZM13.8661 10.992C14.5488 10.992 15.0395 10.8213 15.3381 10.48C15.6475 10.128 15.8021 9.6 15.8021 8.896V7.296C15.8021 6.592 15.6475 6.06933 15.3381 5.728C15.0395 5.376 14.5488 5.2 13.8661 5.2C13.1835 5.2 12.6875 5.376 12.3781 5.728C12.0795 6.06933 11.9301 6.592 11.9301 7.296V8.896C11.9301 9.6 12.0795 10.128 12.3781 10.48C12.6875 10.8213 13.1835 10.992 13.8661 10.992ZM21.4683 12.192C20.7856 12.192 20.2629 11.9627 19.9003 11.504C19.5376 11.0453 19.3563 10.384 19.3563 9.52V4.352C19.3563 4.24533 19.4096 4.192 19.5163 4.192H20.5563C20.6629 4.192 20.7163 4.24533 20.7163 4.352V9.456C20.7163 9.97867 20.8069 10.368 20.9883 10.624C21.1803 10.8693 21.4736 10.992 21.8683 10.992C22.2629 10.992 22.6576 10.8693 23.0523 10.624C23.4576 10.3787 23.9589 9.952 24.5563 9.344L24.5243 10.608C24.1829 10.96 23.8416 11.2533 23.5003 11.488C23.1589 11.7227 22.8176 11.8987 22.4763 12.016C22.1456 12.1333 21.8096 12.192 21.4683 12.192ZM24.6683 12C24.5509 12 24.4869 11.9467 24.4763 11.84C24.4443 11.6373 24.4176 11.4293 24.3963 11.216C24.3749 11.0027 24.3589 10.784 24.3483 10.56L24.2683 9.888V4.352C24.2683 4.24533 24.3216 4.192 24.4283 4.192H25.4683C25.5749 4.192 25.6283 4.24533 25.6283 4.352V10.048C25.6283 10.336 25.6336 10.6347 25.6443 10.944C25.6656 11.2533 25.6976 11.552 25.7403 11.84C25.7616 11.9467 25.7029 12 25.5643 12H24.6683ZM33.3241 12C33.2175 12 33.1641 11.9467 33.1641 11.84V6.736C33.1641 6.20267 33.0521 5.81333 32.8281 5.568C32.6148 5.32267 32.2895 5.2 31.8521 5.2C31.4361 5.2 31.0255 5.32267 30.6201 5.568C30.2148 5.81333 29.7081 6.23467 29.1001 6.832L29.1161 5.6C29.4788 5.216 29.8201 4.90667 30.1401 4.672C30.4708 4.43733 30.7961 4.26667 31.1161 4.16C31.4468 4.05333 31.7935 4 32.1561 4C32.9241 4 33.5108 4.224 33.9161 4.672C34.3215 5.12 34.5241 5.78667 34.5241 6.672V11.84C34.5241 11.9467 34.4708 12 34.3641 12H33.3241ZM28.1881 12C28.0815 12 28.0281 11.9467 28.0281 11.84V6.144C28.0281 5.86667 28.0121 5.55733 27.9801 5.216C27.9588 4.864 27.9375 4.592 27.9161 4.4C27.8948 4.26133 27.9481 4.192 28.0761 4.192H29.0521C29.1481 4.192 29.2068 4.24533 29.2281 4.352C29.2495 4.43733 29.2708 4.57067 29.2921 4.752C29.3135 4.93333 29.3348 5.12533 29.3561 5.328C29.3775 5.52 29.3881 5.68533 29.3881 5.824V6.24V11.84C29.3881 11.9467 29.3348 12 29.2281 12H28.1881ZM39.0628 12.192C38.3161 12.192 37.7401 11.9413 37.3348 11.44C36.9401 10.9387 36.7428 10.1973 36.7428 9.216V7.216C36.7428 6.20267 36.9988 5.41333 37.5108 4.848C38.0228 4.28267 38.7321 4 39.6388 4C40.0548 4 40.4921 4.05867 40.9508 4.176C41.4094 4.28267 41.7561 4.42133 41.9908 4.592L42.0708 5.76C41.7294 5.57867 41.3561 5.44 40.9508 5.344C40.5454 5.248 40.1881 5.2 39.8788 5.2C39.2814 5.2 38.8334 5.38133 38.5348 5.744C38.2468 6.10667 38.1028 6.65067 38.1028 7.376V9.296C38.1028 9.86133 38.2094 10.288 38.4228 10.576C38.6468 10.8533 38.9774 10.992 39.4148 10.992C39.6814 10.992 39.9428 10.944 40.1988 10.848C40.4548 10.7413 40.7374 10.5707 41.0468 10.336C41.3561 10.0907 41.7188 9.76 42.1348 9.344L42.1028 10.592C41.7401 10.9547 41.3934 11.2587 41.0628 11.504C40.7428 11.7387 40.4174 11.9093 40.0868 12.016C39.7668 12.1333 39.4254 12.192 39.0628 12.192ZM42.2148 12C42.0974 12 42.0334 11.9413 42.0228 11.824C42.0014 11.664 41.9748 11.4613 41.9428 11.216C41.9108 10.9707 41.9001 10.768 41.9108 10.608L41.8308 9.888V1.232C41.8308 1.12533 41.8841 1.072 41.9908 1.072H43.0308C43.1374 1.072 43.1908 1.12533 43.1908 1.232V10.192C43.1908 10.3413 43.1961 10.5227 43.2068 10.736C43.2174 10.9387 43.2281 11.136 43.2388 11.328C43.2601 11.52 43.2814 11.6693 43.3028 11.776C43.3348 11.9253 43.2814 12 43.1428 12H42.2148ZM48.2783 12C48.1823 12 48.1183 11.9573 48.0863 11.872L44.6623 1.696C44.6303 1.57867 44.6729 1.52 44.7903 1.52H45.9103C46.0063 1.52 46.0703 1.56267 46.1023 1.648L48.3103 8.464C48.4276 8.82667 48.5449 9.19467 48.6623 9.568C48.7903 9.94133 48.9076 10.3147 49.0143 10.688H49.0463C49.1636 10.3253 49.2809 9.96267 49.3983 9.6C49.5263 9.23733 49.6489 8.87467 49.7663 8.512L52.0703 1.648C52.1023 1.56267 52.1663 1.52 52.2623 1.52H53.3663C53.4836 1.52 53.5263 1.57867 53.4943 1.696L49.9903 11.872C49.9583 11.9573 49.8943 12 49.7983 12H48.2783ZM55.27 12C55.1633 12 55.11 11.9467 55.11 11.84V1.68C55.11 1.57333 55.1633 1.52 55.27 1.52H57.942C59.2327 1.52 60.2033 1.79733 60.854 2.352C61.5047 2.896 61.83 3.70667 61.83 4.784C61.83 5.85067 61.4993 6.66133 60.838 7.216C60.1873 7.77067 59.222 8.048 57.942 8.048H56.47V11.84C56.47 11.9467 56.4167 12 56.31 12H55.27ZM56.47 6.896H57.91C58.806 6.896 59.4567 6.73067 59.862 6.4C60.2673 6.05867 60.47 5.536 60.47 4.832C60.47 4.07467 60.2567 3.52533 59.83 3.184C59.414 2.84267 58.7633 2.672 57.878 2.672H56.47V6.896ZM63.9888 12C63.8821 12 63.8288 11.9467 63.8288 11.84V1.68C63.8288 1.57333 63.8821 1.52 63.9888 1.52H65.8448C65.9408 1.52 66.0048 1.55733 66.0368 1.632L69.0448 7.744C69.2474 8.13867 69.4234 8.496 69.5728 8.816C69.7328 9.136 69.8714 9.43467 69.9888 9.712C70.1168 9.98933 70.2341 10.2613 70.3408 10.528H70.3728C70.3728 10.2293 70.3728 9.92 70.3728 9.6C70.3728 9.26933 70.3674 8.93867 70.3568 8.608C70.3568 8.27733 70.3568 7.968 70.3568 7.68V1.68C70.3568 1.57333 70.4101 1.52 70.5168 1.52H71.5408C71.6474 1.52 71.7008 1.57333 71.7008 1.68V11.84C71.7008 11.9467 71.6474 12 71.5408 12H69.7328C69.6368 12 69.5728 11.9627 69.5408 11.888L66.5807 5.936C66.4101 5.584 66.2448 5.248 66.0848 4.928C65.9248 4.59733 65.7701 4.272 65.6208 3.952C65.4714 3.632 65.3274 3.312 65.1888 2.992H65.1568C65.1568 3.35467 65.1568 3.70133 65.1568 4.032C65.1674 4.36267 65.1728 4.69333 65.1728 5.024C65.1728 5.344 65.1728 5.69067 65.1728 6.064V11.84C65.1728 11.9467 65.1194 12 65.0128 12H63.9888Z" fill="white"/>
<path d="M79.8619 12C79.7659 12 79.7072 11.9573 79.6859 11.872L76.7579 1.696C76.7259 1.57867 76.7739 1.52 76.9019 1.52H77.9579C78.0539 1.52 78.1125 1.56267 78.1339 1.648L79.9899 8.256C80.0645 8.50133 80.1339 8.752 80.1979 9.008C80.2619 9.25333 80.3259 9.504 80.3899 9.76C80.4645 10.0053 80.5339 10.256 80.5979 10.512H80.6139C80.7312 10.1387 80.8432 9.77067 80.9499 9.408C81.0672 9.04533 81.1792 8.68267 81.2859 8.32L82.6299 3.856L82.0539 1.856C82.0432 1.80267 82.0485 1.76 82.0699 1.728C82.1019 1.696 82.1445 1.68 82.1979 1.68H83.2859C83.3819 1.68 83.4405 1.728 83.4619 1.824L85.2699 8.464C85.3659 8.80533 85.4565 9.14667 85.5419 9.488C85.6379 9.82933 85.7339 10.1707 85.8299 10.512H85.8459C85.9099 10.2667 85.9739 10.0213 86.0379 9.776C86.1019 9.53067 86.1659 9.28533 86.2299 9.04C86.2939 8.79467 86.3579 8.54933 86.4219 8.304L88.2139 1.648C88.2352 1.56267 88.2939 1.52 88.3899 1.52H89.4939C89.6219 1.52 89.6699 1.57867 89.6379 1.696L86.8219 11.872C86.8005 11.9573 86.7419 12 86.6459 12H85.1259C85.0299 12 84.9712 11.9573 84.9499 11.872L83.8619 8.112C83.7552 7.76 83.6539 7.408 83.5579 7.056C83.4619 6.704 83.3659 6.352 83.2699 6H83.2539C83.1472 6.34133 83.0405 6.688 82.9339 7.04C82.8379 7.38133 82.7365 7.72267 82.6299 8.064L81.4939 11.872C81.4619 11.9573 81.4032 12 81.3179 12H79.8619ZM91.3288 12C91.2221 12 91.1688 11.9467 91.1688 11.84V4.352C91.1688 4.24533 91.2221 4.192 91.3288 4.192H92.3688C92.4754 4.192 92.5288 4.24533 92.5288 4.352V11.84C92.5288 11.9467 92.4754 12 92.3688 12H91.3288ZM91.8568 2.88C91.5474 2.88 91.3234 2.8 91.1848 2.64C91.0461 2.46933 90.9768 2.256 90.9768 2V1.84C90.9768 1.584 91.0461 1.376 91.1848 1.216C91.3234 1.04533 91.5474 0.959999 91.8568 0.959999C92.1661 0.959999 92.3901 1.04533 92.5288 1.216C92.6674 1.376 92.7368 1.584 92.7368 1.84V2C92.7368 2.256 92.6674 2.46933 92.5288 2.64C92.3901 2.8 92.1661 2.88 91.8568 2.88ZM95.0944 12C94.9877 12 94.9344 11.9467 94.9344 11.84V1.232C94.9344 1.12533 94.9877 1.072 95.0944 1.072H96.1344C96.241 1.072 96.2944 1.12533 96.2944 1.232V5.376C96.2944 5.73867 96.2944 6.10667 96.2944 6.48C96.2944 6.84267 96.289 7.21067 96.2784 7.584H96.2944C96.4864 7.37067 96.6784 7.15733 96.8704 6.944C97.073 6.73067 97.2757 6.51733 97.4784 6.304L99.3664 4.272C99.409 4.21867 99.473 4.192 99.5584 4.192H100.966C101.041 4.192 101.084 4.21333 101.094 4.256C101.116 4.288 101.1 4.33067 101.046 4.384L98.3904 7.104L101.286 11.808C101.318 11.8613 101.324 11.9093 101.302 11.952C101.281 11.984 101.238 12 101.174 12H99.9424C99.8677 12 99.8037 11.9627 99.7504 11.888L97.4144 8.112L96.2944 9.248V11.84C96.2944 11.9467 96.241 12 96.1344 12H95.0944ZM102.954 12C102.847 12 102.794 11.9467 102.794 11.84V4.352C102.794 4.24533 102.847 4.192 102.954 4.192H103.994C104.1 4.192 104.154 4.24533 104.154 4.352V11.84C104.154 11.9467 104.1 12 103.994 12H102.954ZM103.482 2.88C103.172 2.88 102.948 2.8 102.81 2.64C102.671 2.46933 102.602 2.256 102.602 2V1.84C102.602 1.584 102.671 1.376 102.81 1.216C102.948 1.04533 103.172 0.959999 103.482 0.959999C103.791 0.959999 104.015 1.04533 104.154 1.216C104.292 1.376 104.362 1.584 104.362 1.84V2C104.362 2.256 104.292 2.46933 104.154 2.64C104.015 2.8 103.791 2.88 103.482 2.88Z" fill="#9F9FA9"/>
</svg>
