<svg width="177" height="24" viewBox="0 0 177 24" fill="none" xmlns="http://www.w3.org/2000/svg">
<path d="M1.9 18C1.76667 18 1.7 17.9333 1.7 17.8V5.1C1.7 4.96667 1.76667 4.9 1.9 4.9H3.2C3.33333 4.9 3.4 4.96667 3.4 5.1V10.5H9.82V5.1C9.82 4.96667 9.88667 4.9 10.02 4.9H11.32C11.4533 4.9 11.52 4.96667 11.52 5.1V17.8C11.52 17.9333 11.4533 18 11.32 18H10.02C9.88667 18 9.82 17.9333 9.82 17.8V11.98H3.4V17.8C3.4 17.9333 3.33333 18 3.2 18H1.9ZM18.5827 18.24C17.236 18.24 16.2093 17.9133 15.5027 17.26C14.8093 16.6067 14.4627 15.6133 14.4627 14.28V11.96C14.4627 10.6267 14.8093 9.63333 15.5027 8.98C16.196 8.32667 17.2227 8 18.5827 8C19.9293 8 20.9493 8.32667 21.6427 8.98C22.3493 9.63333 22.7027 10.6267 22.7027 11.96V14.28C22.7027 15.6133 22.356 16.6067 21.6627 17.26C20.9693 17.9133 19.9427 18.24 18.5827 18.24ZM18.5827 16.74C19.436 16.74 20.0493 16.5267 20.4227 16.1C20.8093 15.66 21.0027 15 21.0027 14.12V12.12C21.0027 11.24 20.8093 10.5867 20.4227 10.16C20.0493 9.72 19.436 9.5 18.5827 9.5C17.7293 9.5 17.1093 9.72 16.7227 10.16C16.3493 10.5867 16.1627 11.24 16.1627 12.12V14.12C16.1627 15 16.3493 15.66 16.7227 16.1C17.1093 16.5267 17.7293 16.74 18.5827 16.74ZM28.0853 18.24C27.232 18.24 26.5786 17.9533 26.1253 17.38C25.672 16.8067 25.4453 15.98 25.4453 14.9V8.44C25.4453 8.30667 25.512 8.24 25.6453 8.24H26.9453C27.0786 8.24 27.1453 8.30667 27.1453 8.44V14.82C27.1453 15.4733 27.2586 15.96 27.4853 16.28C27.7253 16.5867 28.092 16.74 28.5853 16.74C29.0786 16.74 29.572 16.5867 30.0653 16.28C30.572 15.9733 31.1986 15.44 31.9453 14.68L31.9053 16.26C31.4786 16.7 31.052 17.0667 30.6253 17.36C30.1986 17.6533 29.772 17.8733 29.3453 18.02C28.932 18.1667 28.512 18.24 28.0853 18.24ZM32.0853 18C31.9386 18 31.8586 17.9333 31.8453 17.8C31.8053 17.5467 31.772 17.2867 31.7453 17.02C31.7186 16.7533 31.6986 16.48 31.6853 16.2L31.5853 15.36V8.44C31.5853 8.30667 31.652 8.24 31.7853 8.24H33.0853C33.2186 8.24 33.2853 8.30667 33.2853 8.44V15.56C33.2853 15.92 33.292 16.2933 33.3053 16.68C33.332 17.0667 33.372 17.44 33.4253 17.8C33.452 17.9333 33.3786 18 33.2053 18H32.0853ZM42.9052 18C42.7718 18 42.7052 17.9333 42.7052 17.8V11.42C42.7052 10.7533 42.5652 10.2667 42.2852 9.96C42.0185 9.65333 41.6118 9.5 41.0652 9.5C40.5452 9.5 40.0318 9.65333 39.5252 9.96C39.0185 10.2667 38.3852 10.7933 37.6252 11.54L37.6452 10C38.0985 9.52 38.5252 9.13333 38.9252 8.84C39.3385 8.54667 39.7452 8.33333 40.1452 8.2C40.5585 8.06667 40.9918 8 41.4452 8C42.4052 8 43.1385 8.28 43.6452 8.84C44.1518 9.4 44.4052 10.2333 44.4052 11.34V17.8C44.4052 17.9333 44.3385 18 44.2052 18H42.9052ZM36.4852 18C36.3518 18 36.2852 17.9333 36.2852 17.8V10.68C36.2852 10.3333 36.2652 9.94667 36.2252 9.52C36.1985 9.08 36.1718 8.74 36.1452 8.5C36.1185 8.32667 36.1852 8.24 36.3452 8.24H37.5652C37.6852 8.24 37.7585 8.30667 37.7852 8.44C37.8118 8.54667 37.8385 8.71333 37.8652 8.94C37.8918 9.16667 37.9185 9.40667 37.9452 9.66C37.9718 9.9 37.9852 10.1067 37.9852 10.28V10.8V17.8C37.9852 17.9333 37.9185 18 37.7852 18H36.4852ZM50.0784 18.24C49.1451 18.24 48.4251 17.9267 47.9184 17.3C47.4251 16.6733 47.1784 15.7467 47.1784 14.52V12.02C47.1784 10.7533 47.4984 9.76667 48.1384 9.06C48.7784 8.35333 49.6651 8 50.7984 8C51.3184 8 51.8651 8.07333 52.4384 8.22C53.0118 8.35333 53.4451 8.52667 53.7384 8.74L53.8384 10.2C53.4118 9.97333 52.9451 9.8 52.4384 9.68C51.9318 9.56 51.4851 9.5 51.0984 9.5C50.3518 9.5 49.7918 9.72667 49.4184 10.18C49.0584 10.6333 48.8784 11.3133 48.8784 12.22V14.62C48.8784 15.3267 49.0118 15.86 49.2784 16.22C49.5584 16.5667 49.9718 16.74 50.5184 16.74C50.8518 16.74 51.1784 16.68 51.4984 16.56C51.8184 16.4267 52.1718 16.2133 52.5584 15.92C52.9451 15.6133 53.3984 15.2 53.9184 14.68L53.8784 16.24C53.4251 16.6933 52.9918 17.0733 52.5784 17.38C52.1784 17.6733 51.7718 17.8867 51.3584 18.02C50.9584 18.1667 50.5318 18.24 50.0784 18.24ZM54.0184 18C53.8718 18 53.7918 17.9267 53.7784 17.78C53.7518 17.58 53.7184 17.3267 53.6784 17.02C53.6384 16.7133 53.6251 16.46 53.6384 16.26L53.5384 15.36V4.54C53.5384 4.40667 53.6051 4.34 53.7384 4.34H55.0384C55.1718 4.34 55.2384 4.40667 55.2384 4.54V15.74C55.2384 15.9267 55.2451 16.1533 55.2584 16.42C55.2718 16.6733 55.2851 16.92 55.2984 17.16C55.3251 17.4 55.3518 17.5867 55.3784 17.72C55.4184 17.9067 55.3518 18 55.1784 18H54.0184ZM61.5978 18C61.4778 18 61.3978 17.9467 61.3578 17.84L57.0778 5.12C57.0378 4.97333 57.0911 4.9 57.2378 4.9H58.6378C58.7578 4.9 58.8378 4.95333 58.8778 5.06L61.6378 13.58C61.7845 14.0333 61.9311 14.4933 62.0778 14.96C62.2378 15.4267 62.3845 15.8933 62.5178 16.36H62.5578C62.7045 15.9067 62.8511 15.4533 62.9978 15C63.1578 14.5467 63.3111 14.0933 63.4578 13.64L66.3378 5.06C66.3778 4.95333 66.4578 4.9 66.5778 4.9H67.9578C68.1045 4.9 68.1578 4.97333 68.1178 5.12L63.7378 17.84C63.6978 17.9467 63.6178 18 63.4978 18H61.5978ZM70.3375 18C70.2042 18 70.1375 17.9333 70.1375 17.8V5.1C70.1375 4.96667 70.2042 4.9 70.3375 4.9H73.6775C75.2908 4.9 76.5042 5.24667 77.3175 5.94C78.1308 6.62 78.5375 7.63333 78.5375 8.98C78.5375 10.3133 78.1242 11.3267 77.2975 12.02C76.4842 12.7133 75.2775 13.06 73.6775 13.06H71.8375V17.8C71.8375 17.9333 71.7708 18 71.6375 18H70.3375ZM71.8375 11.62H73.6375C74.7575 11.62 75.5708 11.4133 76.0775 11C76.5842 10.5733 76.8375 9.92 76.8375 9.04C76.8375 8.09333 76.5708 7.40667 76.0375 6.98C75.5175 6.55333 74.7042 6.34 73.5975 6.34H71.8375V11.62ZM81.2359 18C81.1026 18 81.0359 17.9333 81.0359 17.8V5.1C81.0359 4.96667 81.1026 4.9 81.2359 4.9H83.5559C83.6759 4.9 83.7559 4.94667 83.7959 5.04L87.5559 12.68C87.8093 13.1733 88.0293 13.62 88.2159 14.02C88.4159 14.42 88.5893 14.7933 88.7359 15.14C88.8959 15.4867 89.0426 15.8267 89.1759 16.16H89.2159C89.2159 15.7867 89.2159 15.4 89.2159 15C89.2159 14.5867 89.2093 14.1733 89.1959 13.76C89.1959 13.3467 89.1959 12.96 89.1959 12.6V5.1C89.1959 4.96667 89.2626 4.9 89.3959 4.9H90.6759C90.8093 4.9 90.8759 4.96667 90.8759 5.1V17.8C90.8759 17.9333 90.8093 18 90.6759 18H88.4159C88.2959 18 88.2159 17.9533 88.1759 17.86L84.4759 10.42C84.2626 9.98 84.0559 9.56 83.8559 9.16C83.6559 8.74667 83.4626 8.34 83.2759 7.94C83.0893 7.54 82.9093 7.14 82.7359 6.74H82.6959C82.6959 7.19333 82.6959 7.62667 82.6959 8.04C82.7093 8.45333 82.7159 8.86667 82.7159 9.28C82.7159 9.68 82.7159 10.1133 82.7159 10.58V17.8C82.7159 17.9333 82.6493 18 82.5159 18H81.2359Z" fill="#09090B"/>
<path d="M101.077 18C100.957 18 100.884 17.9467 100.857 17.84L97.1973 5.12C97.1573 4.97333 97.2173 4.9 97.3773 4.9H98.6973C98.8173 4.9 98.8907 4.95333 98.9173 5.06L101.237 13.32C101.331 13.6267 101.417 13.94 101.497 14.26C101.577 14.5667 101.657 14.88 101.737 15.2C101.831 15.5067 101.917 15.82 101.997 16.14H102.017C102.164 15.6733 102.304 15.2133 102.437 14.76C102.584 14.3067 102.724 13.8533 102.857 13.4L104.537 7.82L103.817 5.32C103.804 5.25333 103.811 5.2 103.837 5.16C103.877 5.12 103.931 5.1 103.997 5.1H105.357C105.477 5.1 105.551 5.16 105.577 5.28L107.837 13.58C107.957 14.0067 108.071 14.4333 108.177 14.86C108.297 15.2867 108.417 15.7133 108.537 16.14H108.557C108.637 15.8333 108.717 15.5267 108.797 15.22C108.877 14.9133 108.957 14.6067 109.037 14.3C109.117 13.9933 109.197 13.6867 109.277 13.38L111.517 5.06C111.544 4.95333 111.617 4.9 111.737 4.9H113.117C113.277 4.9 113.337 4.97333 113.297 5.12L109.777 17.84C109.751 17.9467 109.677 18 109.557 18H107.657C107.537 18 107.464 17.9467 107.437 17.84L106.077 13.14C105.944 12.7 105.817 12.26 105.697 11.82C105.577 11.38 105.457 10.94 105.337 10.5H105.317C105.184 10.9267 105.051 11.36 104.917 11.8C104.797 12.2267 104.671 12.6533 104.537 13.08L103.117 17.84C103.077 17.9467 103.004 18 102.897 18H101.077ZM115.411 18C115.278 18 115.211 17.9333 115.211 17.8V8.44C115.211 8.30667 115.278 8.24 115.411 8.24H116.711C116.844 8.24 116.911 8.30667 116.911 8.44V17.8C116.911 17.9333 116.844 18 116.711 18H115.411ZM116.071 6.6C115.684 6.6 115.404 6.5 115.231 6.3C115.058 6.08667 114.971 5.82 114.971 5.5V5.3C114.971 4.98 115.058 4.72 115.231 4.52C115.404 4.30667 115.684 4.2 116.071 4.2C116.458 4.2 116.738 4.30667 116.911 4.52C117.084 4.72 117.171 4.98 117.171 5.3V5.5C117.171 5.82 117.084 6.08667 116.911 6.3C116.738 6.5 116.458 6.6 116.071 6.6ZM120.118 18C119.985 18 119.918 17.9333 119.918 17.8V4.54C119.918 4.40667 119.985 4.34 120.118 4.34H121.418C121.551 4.34 121.618 4.40667 121.618 4.54V9.72C121.618 10.1733 121.618 10.6333 121.618 11.1C121.618 11.5533 121.611 12.0133 121.598 12.48H121.618C121.858 12.2133 122.098 11.9467 122.338 11.68C122.591 11.4133 122.845 11.1467 123.098 10.88L125.458 8.34C125.511 8.27333 125.591 8.24 125.698 8.24H127.458C127.551 8.24 127.605 8.26667 127.618 8.32C127.645 8.36 127.625 8.41333 127.558 8.48L124.238 11.88L127.858 17.76C127.898 17.8267 127.905 17.8867 127.878 17.94C127.851 17.98 127.798 18 127.718 18H126.178C126.085 18 126.005 17.9533 125.938 17.86L123.018 13.14L121.618 14.56V17.8C121.618 17.9333 121.551 18 121.418 18H120.118ZM129.942 18C129.809 18 129.742 17.9333 129.742 17.8V8.44C129.742 8.30667 129.809 8.24 129.942 8.24H131.242C131.376 8.24 131.442 8.30667 131.442 8.44V17.8C131.442 17.9333 131.376 18 131.242 18H129.942ZM130.602 6.6C130.216 6.6 129.936 6.5 129.762 6.3C129.589 6.08667 129.502 5.82 129.502 5.5V5.3C129.502 4.98 129.589 4.72 129.762 4.52C129.936 4.30667 130.216 4.2 130.602 4.2C130.989 4.2 131.269 4.30667 131.442 4.52C131.616 4.72 131.702 4.98 131.702 5.3V5.5C131.702 5.82 131.616 6.08667 131.442 6.3C131.269 6.5 130.989 6.6 130.602 6.6Z" fill="#52525C"/>
</svg>
