<svg width="141" height="17" viewBox="0 0 141 17" fill="none" xmlns="http://www.w3.org/2000/svg">
<path d="M0.679688 16V1.60547H2.4375V7.83594H9.87891V1.60547H11.6367V16H9.87891V9.4375H2.4375V16H0.679688ZM18.9805 16.1562C18.0104 16.1562 17.1445 15.9284 16.3828 15.4727C15.6276 15.0169 15.0319 14.3854 14.5957 13.5781C14.1595 12.7643 13.9414 11.8268 13.9414 10.7656C13.9414 9.72396 14.1595 8.80924 14.5957 8.02148C15.0319 7.22721 15.6276 6.60872 16.3828 6.16602C17.1445 5.7168 18.0104 5.49219 18.9805 5.49219C19.957 5.49219 20.8229 5.7168 21.5781 6.16602C22.3398 6.60872 22.9355 7.22721 23.3652 8.02148C23.8014 8.80924 24.0195 9.72396 24.0195 10.7656C24.0195 11.8268 23.7982 12.7643 23.3555 13.5781C22.9193 14.3854 22.3203 15.0169 21.5586 15.4727C20.8034 15.9284 19.944 16.1562 18.9805 16.1562ZM18.9805 14.5938C19.625 14.5938 20.1979 14.4342 20.6992 14.1152C21.2005 13.7962 21.5911 13.3503 21.8711 12.7773C22.1576 12.2044 22.3008 11.5339 22.3008 10.7656C22.3008 10.0169 22.1576 9.36589 21.8711 8.8125C21.5911 8.2526 21.2005 7.81966 20.6992 7.51367C20.1979 7.20768 19.625 7.05469 18.9805 7.05469C18.3424 7.05469 17.7728 7.20768 17.2715 7.51367C16.7702 7.81966 16.3763 8.2526 16.0898 8.8125C15.8034 9.36589 15.6602 10.0169 15.6602 10.7656C15.6602 11.5339 15.8001 12.2044 16.0801 12.7773C16.3665 13.3503 16.7572 13.7962 17.252 14.1152C17.7533 14.4342 18.3294 14.5938 18.9805 14.5938ZM29.9766 16.1562C29.2083 16.1562 28.5345 15.9935 27.9551 15.668C27.3757 15.3424 26.9232 14.8737 26.5977 14.2617C26.2721 13.6432 26.1094 12.901 26.1094 12.0352V5.64844H27.7891V11.957C27.7891 12.8359 28.0299 13.4967 28.5117 13.9395C29 14.3757 29.5859 14.5938 30.2695 14.5938C30.8034 14.5938 31.2689 14.4766 31.666 14.2422C32.0697 14.0013 32.3822 13.6823 32.6035 13.2852C32.8314 12.8815 32.9453 12.4388 32.9453 11.957V5.64844H34.625V13.0703C34.625 13.526 34.6803 13.8678 34.791 14.0957C34.9017 14.3171 35.1263 14.4961 35.4648 14.6328L34.8203 16.1562C34.3451 15.9284 33.9577 15.6452 33.6582 15.3066C33.3652 14.9616 33.2188 14.6198 33.2188 14.2812L34.0195 14.6328H32.7109L33.5898 14.0469C33.3294 14.6003 32.8997 15.0918 32.3008 15.5215C31.7018 15.9447 30.9271 16.1562 29.9766 16.1562ZM37.5547 16V5.64844H39.2344V6.91797H39.625L38.9023 7.64062C39.0781 7.17188 39.3385 6.77799 39.6836 6.45898C40.0286 6.13997 40.4355 5.89909 40.9043 5.73633C41.373 5.57357 41.8776 5.49219 42.418 5.49219C43.2904 5.49219 43.9935 5.68424 44.5273 6.06836C45.0677 6.45247 45.4583 6.94076 45.6992 7.5332C45.9466 8.12565 46.0703 8.73438 46.0703 9.35938V16H44.3906V9.71094C44.3906 8.83203 44.1725 8.17122 43.7363 7.72852C43.3066 7.2793 42.7109 7.05469 41.9492 7.05469C41.4414 7.05469 40.9824 7.15885 40.5723 7.36719C40.1621 7.56901 39.8366 7.86849 39.5957 8.26562C39.3548 8.65625 39.2344 9.13802 39.2344 9.71094V16H37.5547ZM57.9062 16.1562C57.5091 15.9674 57.1901 15.7721 56.9492 15.5703C56.7083 15.3685 56.5326 15.1471 56.4219 14.9062C56.3177 14.6654 56.2656 14.3919 56.2656 14.0859L56.7344 14.3203H55.7773L56.3047 13.168V7.95312L55.8164 6.91797H56.0312V0.960938H57.7109V13.1289C57.7109 13.5586 57.7663 13.8776 57.877 14.0859C57.9876 14.2943 58.2122 14.4766 58.5508 14.6328L57.9062 16.1562ZM52.7305 16.1562C52.099 16.1562 51.5 16.0326 50.9336 15.7852C50.3737 15.5312 49.8757 15.1699 49.4395 14.7012C49.0098 14.2324 48.6712 13.6693 48.4238 13.0117C48.1764 12.3542 48.056 11.6185 48.0625 10.8047C48.056 9.71094 48.2676 8.76693 48.6973 7.97266C49.127 7.17188 49.6966 6.55664 50.4062 6.12695C51.1159 5.69076 51.8906 5.47266 52.7305 5.47266C53.5964 5.47266 54.3646 5.69727 55.0352 6.14648C55.7122 6.5957 56.2428 7.2207 56.627 8.02148C57.0176 8.82227 57.2161 9.75 57.2227 10.8047C57.2161 11.8398 57.0176 12.7611 56.627 13.5684C56.2428 14.3757 55.7122 15.0104 55.0352 15.4727C54.3646 15.9284 53.5964 16.1562 52.7305 16.1562ZM53.0234 14.6328C53.6354 14.6328 54.179 14.4668 54.6543 14.1348C55.1361 13.7962 55.5137 13.3405 55.7871 12.7676C56.0671 12.1882 56.207 11.5339 56.207 10.8047C56.207 10.0169 56.0605 9.33984 55.7676 8.77344C55.4811 8.20052 55.097 7.76107 54.6152 7.45508C54.1335 7.14909 53.6029 6.99609 53.0234 6.99609C52.3919 6.99609 51.8288 7.15885 51.334 7.48438C50.8457 7.80339 50.4616 8.24935 50.1816 8.82227C49.9082 9.39518 49.7747 10.056 49.7812 10.8047C49.7747 11.5339 49.9082 12.1882 50.1816 12.7676C50.4616 13.3405 50.8457 13.7962 51.334 14.1348C51.8288 14.4668 52.3919 14.6328 53.0234 14.6328ZM65.4062 16L59.4492 1.60547H61.3828L64.293 9.04688L66.0898 13.4805H66.168L67.9844 9.04688L70.8945 1.60547H72.8086L66.8516 16H65.4062ZM76.0117 10.2773V8.67578H78.8438C79.4297 8.67578 79.9375 8.56185 80.3672 8.33398C80.8034 8.09961 81.1387 7.77409 81.373 7.35742C81.6139 6.93424 81.7344 6.44271 81.7344 5.88281C81.7344 5.04297 81.4609 4.38867 80.9141 3.91992C80.3737 3.44466 79.6445 3.20703 78.7266 3.20703H76.0117V1.60547H78.8438C79.7812 1.60547 80.5983 1.78125 81.2949 2.13281C81.9915 2.47786 82.5319 2.9694 82.916 3.60742C83.3001 4.23893 83.4922 4.98438 83.4922 5.84375C83.4922 6.69661 83.3066 7.45833 82.9355 8.12891C82.5645 8.79297 82.0404 9.31706 81.3633 9.70117C80.6862 10.0853 79.8854 10.2773 78.9609 10.2773H76.0117ZM74.7227 16V1.60547H76.4805V16H74.7227ZM85.8945 16V1.60547H87.1836L93.8633 10.7656L95.2109 12.7188H95.2891L95.25 9.125V1.60547H97.0078V16H95.7383L89.0977 6.80078L87.6914 4.88672H87.6133L87.6523 8.36328V16H85.8945Z" fill="#09090B"/>
<path d="M108.082 16L103.883 1.60547H105.699L108.004 10.0039L108.922 13.5586H109.02L112.496 3.07031H113.219L116.695 13.5586H116.773L117.691 10.0039L120.016 1.60547H121.812L117.613 16H116.012L112.887 7.03516H112.809L109.684 16H108.082ZM123.785 16V5.64844H125.465V16H123.785ZM124.625 3.98828C124.267 3.98828 123.964 3.86458 123.717 3.61719C123.476 3.36979 123.355 3.07031 123.355 2.71875C123.355 2.36719 123.476 2.06771 123.717 1.82031C123.964 1.57292 124.267 1.44922 124.625 1.44922C124.977 1.44922 125.276 1.57292 125.523 1.82031C125.771 2.06771 125.895 2.36719 125.895 2.71875C125.895 3.07031 125.771 3.36979 125.523 3.61719C125.276 3.86458 124.977 3.98828 124.625 3.98828ZM128.219 16V0.960938H129.898V9.88672H130.738L129.977 10.3164L134.449 5.64844H136.656L131.5 11.0391V10.1211L136.969 16H134.781L129.977 10.8438L130.738 11.3125H129.898V16H128.219ZM138.707 16V5.64844H140.387V16H138.707ZM139.547 3.98828C139.189 3.98828 138.886 3.86458 138.639 3.61719C138.398 3.36979 138.277 3.07031 138.277 2.71875C138.277 2.36719 138.398 2.06771 138.639 1.82031C138.886 1.57292 139.189 1.44922 139.547 1.44922C139.898 1.44922 140.198 1.57292 140.445 1.82031C140.693 2.06771 140.816 2.36719 140.816 2.71875C140.816 3.07031 140.693 3.36979 140.445 3.61719C140.198 3.86458 139.898 3.98828 139.547 3.98828Z" fill="#52525C"/>
</svg>
