<svg width="2492" height="648" viewBox="0 0 2492 648" fill="none" xmlns="http://www.w3.org/2000/svg">
<path d="M462.88 492.48C424.72 492.48 395.2 483.48 374.32 465.48C353.8 447.12 343.54 419.4 343.54 382.32V324C343.54 287.28 353.8 259.74 374.32 241.38C394.84 223.02 424.36 213.84 462.88 213.84C501.04 213.84 530.38 223.02 550.9 241.38C571.42 259.74 581.68 287.28 581.68 324V382.32C581.68 419.4 571.42 447.12 550.9 465.48C530.74 483.48 501.4 492.48 462.88 492.48ZM462.88 437.94C482.32 437.94 496.36 433.08 505 423.36C513.64 413.28 517.96 397.62 517.96 376.38V329.94C517.96 308.7 513.64 293.22 505 283.5C496.36 273.42 482.32 268.38 462.88 268.38C443.44 268.38 429.22 273.42 420.22 283.5C411.58 293.22 407.26 308.7 407.26 329.94V376.38C407.26 397.62 411.58 413.28 420.22 423.36C429.22 433.08 443.44 437.94 462.88 437.94ZM716.65 492.48C692.89 492.48 674.89 485.1 662.65 470.34C650.41 455.22 644.29 432.9 644.29 403.38V226.8C644.29 222.48 646.27 220.32 650.23 220.32H701.53C705.85 220.32 708.01 222.48 708.01 226.8V393.12C708.01 408.24 710.53 419.4 715.57 426.6C720.97 433.8 729.25 437.4 740.41 437.4C752.29 437.4 764.17 433.62 776.05 426.06C788.29 418.14 801.97 406.44 817.09 390.96L819.25 438.48C808.81 448.92 798.19 458.28 787.39 466.56C776.95 474.48 765.79 480.78 753.91 485.46C742.39 490.14 729.97 492.48 716.65 492.48ZM823.57 486C819.25 486 816.73 484.02 816.01 480.06C814.93 473.58 813.85 466.74 812.77 459.54C812.05 452.34 811.51 445.14 811.15 437.94L806.29 410.4V226.8C806.29 222.48 808.45 220.32 812.77 220.32H864.07C868.03 220.32 870.01 222.48 870.01 226.8V418.5C870.01 428.94 870.19 439.38 870.55 449.82C871.27 459.9 872.35 469.8 873.79 479.52C874.51 483.84 872.35 486 867.31 486H823.57ZM1114.58 486C1110.26 486 1108.1 483.84 1108.1 479.52V313.2C1108.1 298.08 1105.04 286.92 1098.92 279.72C1092.8 272.52 1083.44 268.92 1070.84 268.92C1058.24 268.92 1045.82 272.7 1033.58 280.26C1021.7 287.46 1008.02 298.8 992.536 314.28L990.376 267.3C1000.82 256.14 1011.26 246.6 1021.7 238.68C1032.5 230.76 1043.66 224.64 1055.18 220.32C1066.7 216 1079.3 213.84 1092.98 213.84C1118.9 213.84 1138.52 221.22 1151.84 235.98C1165.16 250.38 1171.82 272.7 1171.82 302.94V479.52C1171.82 483.84 1169.66 486 1165.34 486H1114.58ZM945.016 486C941.056 486 939.076 483.84 939.076 479.52V287.82C939.076 277.74 938.536 267.12 937.456 255.96C936.736 244.8 936.016 235.44 935.296 227.88C934.576 222.84 936.736 220.32 941.776 220.32H987.136C990.736 220.32 993.076 222.3 994.156 226.26C994.876 229.14 995.596 233.46 996.316 239.22C997.036 244.62 997.756 250.38 998.476 256.5C999.196 262.62 999.556 268.02 999.556 272.7L1002.8 294.3V479.52C1002.8 483.84 1000.64 486 996.316 486H945.016ZM1312.01 492.48C1286.81 492.48 1267.55 484.56 1254.23 468.72C1240.91 452.88 1234.25 428.76 1234.25 396.36V322.92C1234.25 286.56 1242.71 259.38 1259.63 241.38C1276.55 223.02 1300.13 213.84 1330.37 213.84C1343.33 213.84 1357.37 215.64 1372.49 219.24C1387.61 222.48 1399.67 226.98 1408.67 232.74L1410.83 283.5C1400.75 278.1 1389.95 274.14 1378.43 271.62C1366.91 268.74 1356.65 267.3 1347.65 267.3C1331.09 267.3 1318.67 272.52 1310.39 282.96C1302.11 293.4 1297.97 308.7 1297.97 328.86V389.88C1297.97 405.72 1301.03 417.6 1307.15 425.52C1313.27 433.44 1322.63 437.4 1335.23 437.4C1343.51 437.4 1351.43 435.78 1358.99 432.54C1366.91 429.3 1375.19 424.44 1383.83 417.96C1392.47 411.12 1402.19 402.3 1412.99 391.5L1415.15 438.48C1404.35 448.92 1393.55 458.28 1382.75 466.56C1372.31 474.84 1361.33 481.32 1349.81 486C1338.29 490.32 1325.69 492.48 1312.01 492.48ZM1418.39 486C1414.43 486 1412.09 484.02 1411.37 480.06C1410.29 474.3 1409.21 467.46 1408.13 459.54C1407.41 451.62 1407.05 444.78 1407.05 439.02L1402.19 410.4V123.66C1402.19 119.34 1404.35 117.18 1408.67 117.18H1459.43C1463.75 117.18 1465.91 119.34 1465.91 123.66V421.74C1465.91 427.86 1466.09 434.52 1466.45 441.72C1466.81 448.56 1467.17 455.22 1467.53 461.7C1468.25 468.18 1468.79 473.58 1469.15 477.9C1470.23 483.3 1468.25 486 1463.21 486H1418.39Z" fill="#03BBA7"/>
<path d="M1627.85 486C1623.89 486 1621.37 484.38 1620.29 481.14L1507.43 139.32C1505.99 134.64 1507.61 132.3 1512.29 132.3H1568.99C1572.95 132.3 1575.47 133.92 1576.55 137.16L1641.35 350.46C1645.31 363.42 1649.09 376.38 1652.69 389.34C1656.29 402.3 1659.71 415.26 1662.95 428.22H1664.03C1667.27 415.26 1670.69 402.48 1674.29 389.88C1678.25 376.92 1682.03 363.96 1685.63 351L1752.05 137.7C1753.13 134.1 1755.65 132.3 1759.61 132.3H1816.31C1820.99 132.3 1822.61 134.64 1821.17 139.32L1706.15 481.14C1705.07 484.38 1702.73 486 1699.13 486H1627.85ZM1874.32 486C1870.36 486 1868.38 483.84 1868.38 479.52V138.78C1868.38 134.46 1870.36 132.3 1874.32 132.3H1974.76C2021.56 132.3 2055.94 142.2 2077.9 162C2100.22 181.44 2111.38 210.06 2111.38 247.86C2111.38 284.94 2100.04 313.38 2077.36 333.18C2054.68 352.62 2020.66 362.34 1975.3 362.34H1933.18V479.52C1933.18 483.84 1931.02 486 1926.7 486H1874.32ZM1933.18 307.26H1974.22C1998.7 307.26 2016.88 302.58 2028.76 293.22C2040.64 283.86 2046.58 268.92 2046.58 248.4C2046.58 226.8 2040.64 211.32 2028.76 201.96C2016.88 192.6 1998.52 187.92 1973.68 187.92H1933.18V307.26ZM2175.96 486C2172 486 2170.02 483.84 2170.02 479.52V138.78C2170.02 134.46 2172 132.3 2175.96 132.3H2252.64C2256.24 132.3 2258.76 133.74 2260.2 136.62L2347.14 312.12C2353.26 324 2358.84 335.52 2363.88 346.68C2369.28 357.84 2374.14 368.46 2378.46 378.54C2382.78 388.62 2386.56 397.98 2389.8 406.62H2391.42C2390.7 396.9 2390.16 386.46 2389.8 375.3C2389.44 363.78 2389.08 352.26 2388.72 340.74C2388.72 329.22 2388.72 318.78 2388.72 309.42V138.78C2388.72 134.46 2390.7 132.3 2394.66 132.3H2445.42C2449.74 132.3 2451.9 134.46 2451.9 138.78V479.52C2451.9 483.84 2449.74 486 2445.42 486H2369.82C2366.22 486 2363.7 484.56 2362.26 481.68L2278.02 312.12C2272.62 301.32 2267.22 290.34 2261.82 279.18C2256.78 267.66 2251.74 256.32 2246.7 245.16C2242.02 234 2237.52 223.38 2233.2 213.3H2231.58C2231.94 224.46 2232.3 235.8 2232.66 247.32C2233.02 258.84 2233.2 270.36 2233.2 281.88C2233.2 293.4 2233.2 304.92 2233.2 316.44V479.52C2233.2 483.84 2231.04 486 2226.72 486H2175.96Z" fill="white"/>
<g filter="url(#filter0_i_73_62)">
<path d="M212 364H281V486H212V364Z" fill="white"/>
<path d="M281 205.018L281 257L212 257L212 135L281 205.018Z" fill="white"/>
<rect x="88" y="276" width="193" height="69" fill="white"/>
<path d="M0 205.133L69 135V486H0V205.133Z" fill="white"/>
</g>
<defs>
<filter id="filter0_i_73_62" x="0" y="135" width="285" height="355" filterUnits="userSpaceOnUse" color-interpolation-filters="sRGB">
<feFlood flood-opacity="0" result="BackgroundImageFix"/>
<feBlend mode="normal" in="SourceGraphic" in2="BackgroundImageFix" result="shape"/>
<feColorMatrix in="SourceAlpha" type="matrix" values="0 0 0 0 0 0 0 0 0 0 0 0 0 0 0 0 0 0 127 0" result="hardAlpha"/>
<feOffset dx="13" dy="13"/>
<feGaussianBlur stdDeviation="2"/>
<feComposite in2="hardAlpha" operator="arithmetic" k2="-1" k3="1"/>
<feColorMatrix type="matrix" values="0 0 0 0 0 0 0 0 0 0 0 0 0 0 0 0 0 0 0.25 0"/>
<feBlend mode="normal" in2="shape" result="effect1_innerShadow_73_62"/>
</filter>
</defs>
</svg>
